<svg width="32" height="30" viewBox="0 0 32 30" fill="none" xmlns="http://www.w3.org/2000/svg">
<path fill-rule="evenodd" clip-rule="evenodd" d="M15.9998 0C7.52817 0 0.666504 6.86167 0.666504 15.3333C0.666504 22.1183 5.05567 27.8492 11.1507 29.8808C11.9173 30.015 12.2048 29.555 12.2048 29.1525C12.2048 28.7883 12.1857 27.5808 12.1857 26.2967C8.33317 27.0058 7.3365 25.3575 7.02984 24.495C6.85734 24.0542 6.10984 22.6933 5.45817 22.3292C4.9215 22.0417 4.15484 21.3325 5.439 21.3133C6.6465 21.2942 7.509 22.425 7.7965 22.885C9.1765 25.2042 11.3807 24.5525 12.2623 24.15C12.3965 23.1533 12.799 22.4825 13.2398 22.0992C9.82817 21.7158 6.26317 20.3933 6.26317 14.5283C6.26317 12.8608 6.85734 11.4808 7.83484 10.4075C7.6815 10.0242 7.14484 8.4525 7.98817 6.34417C7.98817 6.34417 9.27234 5.94167 12.2048 7.91583C13.4315 7.57083 14.7348 7.39833 16.0382 7.39833C17.3415 7.39833 18.6448 7.57083 19.8715 7.91583C22.804 5.9225 24.0882 6.34417 24.0882 6.34417C24.9315 8.4525 24.3948 10.0242 24.2415 10.4075C25.219 11.4808 25.8132 12.8417 25.8132 14.5283C25.8132 20.4125 22.229 21.7158 18.8173 22.0992C19.3732 22.5783 19.8523 23.4983 19.8523 24.9358C19.8523 26.9867 19.8332 28.635 19.8332 29.1525C19.8332 29.555 20.1207 30.0342 20.8873 29.8808C26.944 27.8492 31.3332 22.0992 31.3332 15.3333C31.3332 6.86167 24.4715 0 15.9998 0V0Z" fill="white"/>
</svg>
